<?xml version="1.0" encoding="utf-8"?>
<!-- Generator: Adobe Illustrator 24.1.0, SVG Export Plug-In . SVG Version: 6.00 Build 0)  -->
<svg version="1.1" id="Layer_1" xmlns="http://www.w3.org/2000/svg" xmlns:xlink="http://www.w3.org/1999/xlink" x="0px" y="0px"
	 viewBox="0 0 24 24" style="enable-background:new 0 0 24 24;" xml:space="preserve">
<style type="text/css">
	.st0{fill:#F2EBEB;}
</style>
<circle class="st0" cx="12" cy="12" r="5"/>
<path class="st0" d="M21,13h-1c-0.6,0-1-0.4-1-1s0.4-1,1-1h1c0.6,0,1,0.4,1,1S21.6,13,21,13z"/>
<path class="st0" d="M4,13H3c-0.6,0-1-0.4-1-1s0.4-1,1-1h1c0.6,0,1,0.4,1,1S4.6,13,4,13z"/>
<path class="st0" d="M17.7,7.3c-0.2,0-0.5-0.1-0.7-0.3c-0.4-0.4-0.4-1,0-1.4l0.7-0.7c0.4-0.4,1-0.5,1.4-0.1c0.4,0.4,0.5,1,0.1,1.4
	c0,0-0.1,0.1-0.1,0.1L18.4,7C18.2,7.2,17.9,7.4,17.7,7.3z"/>
<path class="st0" d="M5.6,19.4c-0.3,0-0.5-0.1-0.7-0.3c-0.4-0.4-0.4-1,0-1.4L5.6,17c0.4-0.4,1.1-0.3,1.4,0.1c0.3,0.4,0.3,0.9,0,1.3
	l-0.7,0.7C6.1,19.3,5.9,19.4,5.6,19.4z"/>
<path class="st0" d="M11.9,5C11.4,5,11,4.6,11,4V3c0-0.6,0.4-1,0.9-1c0.5,0,0.9,0.4,0.9,1v1C12.8,4.6,12.4,5,11.9,5z"/>
<path class="st0" d="M12,22c-0.6,0-1-0.4-1-1v-1c0-0.6,0.4-1,1-1s1,0.4,1,1v1C13,21.6,12.6,22,12,22z"/>
<path class="st0" d="M6.3,7.3C6.1,7.3,5.8,7.2,5.6,7L4.9,6.3C4.6,5.9,4.6,5.3,5,4.9c0.4-0.3,0.9-0.3,1.3,0l0.7,0.7
	c0.4,0.4,0.4,1,0,1.4C6.9,7.2,6.6,7.3,6.3,7.3z"/>
<path class="st0" d="M18.4,19.4c-0.3,0-0.5-0.1-0.7-0.3L17,18.4c-0.3-0.5-0.1-1.1,0.4-1.4c0.3-0.2,0.7-0.2,1,0l0.7,0.7
	c0.4,0.4,0.4,1,0,1.4C18.9,19.3,18.6,19.4,18.4,19.4z"/>
</svg>
